<?xml version="1.0" encoding="UTF-8"?><svg id="RGB" xmlns="http://www.w3.org/2000/svg" viewBox="0 0 499.94 190.16"><defs><style>.cls-1{fill:#fff;}.cls-2{fill:#7df9ff;}</style></defs><path class="cls-2" d="M388.67,63.39c2.85,0,5.16,2.39,5.16,5.33s-2.31,5.33-5.16,5.33-5.16-2.39-5.16-5.33,2.31-5.33,5.16-5.33"/><g><path class="cls-1" d="M178.44,66.2l-17.52,38.51-17.52-38.51c-.21-.45-.54-.83-.94-1.09s-.88-.4-1.38-.4h-9.99c-.7,0-1.34,.28-1.8,.75s-.75,1.1-.75,1.8v55.61c0,.7,.28,1.34,.75,1.8s1.1,.75,1.8,.75h9.08c.7,0,1.34-.28,1.8-.75s.75-1.1,.75-1.8v-27.01l12.77,28.07c.21,.45,.54,.83,.94,1.09s.88,.4,1.38,.4h6.23c.5,0,.97-.15,1.38-.4s.73-.63,.94-1.09l12.77-28.07v27.01c0,.7,.28,1.34,.75,1.8s1.1,.75,1.8,.75h9.08c.7,0,1.34-.28,1.8-.75s.75-1.1,.75-1.8v-55.61c0-.7-.28-1.34-.75-1.8s-1.1-.75-1.8-.75h-9.99c-.5,0-.97,.15-1.38,.4s-.73,.63-.94,1.09Z"/><path class="cls-1" d="M233.78,67.26v33.4l-19.84-34.66c-.23-.4-.55-.72-.93-.94s-.82-.34-1.28-.34h-10.15c-.7,0-1.34,.28-1.8,.75s-.75,1.1-.75,1.8v55.61c0,.7,.28,1.34,.75,1.8s1.1,.75,1.8,.75h9.08c.7,0,1.34-.28,1.8-.75s.75-1.1,.75-1.8v-33.4l19.84,34.66c.23,.4,.55,.72,.93,.94s.82,.34,1.28,.34h10.15c.7,0,1.34-.28,1.8-.75s.75-1.1,.75-1.8v-55.61c0-.7-.28-1.34-.75-1.8s-1.1-.75-1.8-.75h-9.08c-.7,0-1.34,.28-1.8,.75s-.75,1.1-.75,1.8Z"/><path class="cls-1" d="M256.34,125.42h9.08c.7,0,1.34-.28,1.8-.75s.75-1.1,.75-1.8v-55.61c0-.7-.28-1.34-.75-1.8s-1.1-.75-1.8-.75h-9.08c-.7,0-1.34,.28-1.8,.75s-.75,1.1-.75,1.8v55.61c0,.7,.28,1.34,.75,1.8s1.1,.75,1.8,.75Z"/><path class="cls-1" d="M412.4,91.83l1.56-1.45,1.56-1.45c.34-.32,.52-.74,.54-1.17s-.12-.87-.43-1.22c-.72-.81-1.3-1.76-1.7-2.8s-.62-2.17-.62-3.36c0-2.52,.99-4.81,2.59-6.46s3.81-2.68,6.25-2.68,4.65,1.02,6.25,2.68,2.59,3.94,2.59,6.46c0,1.19-.22,2.32-.62,3.36s-.98,1.99-1.7,2.8c-.31,.35-.45,.79-.43,1.22s.2,.85,.54,1.17l1.56,1.45,1.56,1.45c.35,.33,.8,.48,1.25,.46s.88-.21,1.2-.57c1.31-1.5,2.37-3.25,3.1-5.16s1.13-4,1.13-6.19c0-4.69-1.84-8.94-4.81-12.01s-7.08-4.97-11.62-4.97-8.65,1.9-11.62,4.97-4.81,7.32-4.81,12.01c0,2.18,.4,4.27,1.13,6.19s1.79,3.66,3.1,5.16c.31,.36,.75,.55,1.2,.57s.9-.14,1.25-.46Z"/><path class="cls-1" d="M406.29,125.05v-5.1c0-.35,.1-.67,.29-.95s.45-.5,.77-.63l16.78-7.04-16.78-7.04c-.32-.13-.58-.36-.77-.63s-.29-.61-.29-.95v-5.1c0-.61,.31-1.13,.77-1.43s1.05-.39,1.62-.15l28.33,11.89c.32,.13,.58,.36,.77,.63s.29,.61,.29,.95v3.68c0,.35-.1,.67-.29,.95s-.45,.5-.77,.63l-28.33,11.89c-.57,.24-1.16,.15-1.62-.15s-.77-.82-.77-1.43Z"/><path class="cls-1" d="M92.03,63.39c-16.94,0-30.68,14.19-30.68,31.69s13.73,31.69,30.68,31.69,30.68-14.19,30.68-31.69-13.73-31.69-30.68-31.69Zm0,48.74c-9.11,0-16.5-7.63-16.5-17.05s7.39-17.05,16.5-17.05,16.5,7.63,16.5,17.05-7.39,17.05-16.5,17.05Z"/><path class="cls-1" d="M393.26,75.37c-.65,.47-1.37,.85-2.14,1.1s-1.59,.4-2.45,.4c-2.2,0-4.19-.91-5.63-2.39s-2.34-3.52-2.34-5.77c0-.49,.05-.98,.13-1.45s.21-.92,.37-1.36c-1.84-.81-3.76-1.43-5.76-1.86s-4.07-.65-6.19-.65c-6,0-11.59,1.78-16.31,4.85s-8.58,7.44-11.1,12.62c-.23,.48-.31,1.01-.24,1.52s.3,.99,.66,1.38l5.25,5.58,5.25,5.58c.05-4.67,1.9-8.89,4.88-11.94s7.08-4.94,11.61-4.94,8.68,1.91,11.67,4.99,4.83,7.35,4.83,12.06-1.85,8.97-4.83,12.06-7.11,4.99-11.67,4.99c-2.91,0-5.27-.88-7.46-2.3s-4.2-3.37-6.39-5.5l-20.81-22.04v-15.03c.01-.7-.27-1.34-.74-1.8s-1.1-.75-1.8-.75h-9.08c-.7,0-1.34,.28-1.8,.75s-.75,1.1-.75,1.8v1.13c-2.38-1.58-4.99-2.83-7.76-3.68s-5.7-1.31-8.74-1.31c-8.47,0-16.14,3.55-21.69,9.28s-8.98,13.66-8.98,22.41,3.43,16.68,8.98,22.41,13.22,9.28,21.69,9.28c3.04,0,5.97-.46,8.74-1.32s5.37-2.1,7.76-3.68v2.05c0,4.5-1.77,8.7-4.62,11.77s-6.8,5.02-11.16,5.02h-8.43c-.7,0-1.34,.28-1.8,.75s-.75,1.1-.75,1.8v9.08c0,.7,.29,1.34,.75,1.8s1.1,.75,1.8,.75h8.65c7.97-.07,15.19-3.34,20.52-8.63s8.78-12.6,9.17-20.75v-14.38c0-.32-.05-.64-.17-.94s-.29-.57-.51-.81l-.86-.91-.86-.91-5.87-6.23-5.87-6.23v.1c0,4.7-1.85,8.96-4.84,12.04s-7.11,4.99-11.66,4.99-8.68-1.91-11.67-4.99-4.83-7.35-4.83-12.06,1.85-8.97,4.83-12.06,7.11-4.99,11.67-4.99c2.45,0,4.77,.55,6.86,1.55s3.94,2.42,5.45,4.17l2.1,2.24,2.1,2.24v.07l6.66,7.08,6.66,7.08h0l.12,.13,.12,.12,5.43,5.78,5.43,5.78c3.54,3.48,7.15,6.61,11.12,8.86s8.31,3.64,13.29,3.64c8.47,0,16.14-3.55,21.69-9.28s8.98-13.66,8.98-22.41c0-3.73-.62-7.3-1.77-10.62s-2.81-6.38-4.9-9.09Z"/></g></svg>